<?xml version="1.0" encoding="UTF-8" standalone="no"?>
<!-- Created with Inkscape (http://www.inkscape.org/) -->

<svg
   version="1.1"
   id="svg1"
   width="699.6803"
   height="576.58289"
   viewBox="0 0 699.6803 576.58289"
   sodipodi:docname="fantail-logo-black.png"
   xmlns:inkscape="http://www.inkscape.org/namespaces/inkscape"
   xmlns:sodipodi="http://sodipodi.sourceforge.net/DTD/sodipodi-0.dtd"
   xmlns="http://www.w3.org/2000/svg"
   xmlns:svg="http://www.w3.org/2000/svg">
  <defs
     id="defs1" />
  <sodipodi:namedview
     id="namedview1"
     pagecolor="#ffffff"
     bordercolor="#000000"
     borderopacity="0.25"
     inkscape:showpageshadow="2"
     inkscape:pageopacity="0.0"
     inkscape:pagecheckerboard="0"
     inkscape:deskcolor="#d1d1d1">
    <inkscape:page
       x="0"
       y="0"
       width="699.6803"
       height="576.58289"
       id="page2"
       margin="0"
       bleed="0" />
  </sodipodi:namedview>
  <g
     inkscape:groupmode="layer"
     inkscape:label="Image"
     id="g1"
     transform="translate(-98.363083,-224.10768)">
    <path
       id="path1"
       style="fill:#ffffff"
       d="m 273.5,800.33388 c -4.17135,-0.71031 -5.5,-2.0796 -5.5,-5.66824 0,-2.50084 1.31026,-4.37148 6.87694,-9.81812 7.68268,-7.51701 16.47457,-13.51338 29.12306,-19.86292 14.42276,-7.24023 23.81662,-10.44205 77.5,-26.41522 46.38826,-13.80255 87.97108,-31.5739 115.97086,-49.56273 13.33751,-8.56886 14.66474,-9.79766 7.52914,-6.97076 -5.71842,2.26545 -37.03314,13.19829 -71.5,24.96264 -43.16129,14.73197 -65.97958,23.3192 -108.909,40.98583 -14.66168,6.03368 -23.591,8.63326 -23.591,6.86802 0,-0.48918 2.93038,-3.81979 6.51195,-7.40137 17.36733,-17.36733 52.948,-34.71547 100.13184,-48.82149 41.36536,-12.36654 83.67746,-26.61744 86.03801,-28.97798 0.68638,-0.68639 -9.6339,-0.27917 -23.1818,0.91471 -16.78126,1.47881 -61.64372,14.71293 -84.5,24.92692 -24.50317,10.94996 -39.23781,17.7677 -47.5,21.97832 -10.54943,5.37625 -11.89799,4.56317 -5.92568,-3.57274 12.44818,-16.95781 46.97115,-36.10703 94.35677,-52.33785 12.23313,-4.19018 32.13212,-9.82943 38.06891,-10.78851 2.1072,-0.34041 1.87151,-0.53781 -1.5,-1.25633 -5.65198,-1.20451 -27.92853,0.978 -40,3.91895 -21.3682,5.20588 -37.59572,11.54982 -60.58877,23.68637 C 355.74378,680.90462 349.67091,684 349.41596,684 c -0.82042,0 10.82511,-15.35573 15.02257,-19.80867 2.23381,-2.36977 6.45861,-6.16372 9.38844,-8.43099 3.5951,-2.7821 6.24252,-5.93288 8.14307,-9.69133 5.43206,-10.74222 13.73165,-19.83832 27.52996,-30.172 15.91174,-11.91645 28.57823,-18.68123 48.84979,-26.08918 12.96511,-4.73791 15.16094,-5.7933 11.13407,-5.35142 -13.45403,1.47634 -37.02699,9.26238 -54.23386,17.91319 -5.0875,2.55776 -9.25,4.23365 -9.25,3.72421 0,-2.64296 11.09057,-16.90432 18.99722,-24.42853 13.94349,-13.26904 29.95106,-23.23294 60.89781,-37.90579 33.26674,-15.77283 60.6037,-23.89126 85.59793,-25.42054 10.62504,-0.6501 10.62504,-0.6501 13.45892,-4.74453 3.85603,-5.57124 16.13847,-17.2195 24.04812,-22.80645 13.48359,-9.52406 31.27664,-16.987 48.81778,-20.47563 12.28017,-2.44231 35.83239,-2.15152 46.33633,0.57211 13.01136,3.37379 25.97415,11.03532 34.34562,20.29964 4.70764,5.20972 10.74734,16.37087 12.07596,22.31591 0.64285,2.87655 0.42876,2.76999 -5.20262,-2.5895 -19.58946,-18.64364 -34.90742,-24.91169 -60.87307,-24.90903 -28.39674,0.003 -58.0352,13.57747 -78.93735,36.15373 -6.21155,6.70905 -13.337,17.40378 -12.29179,18.44899 0.26704,0.26705 2.79102,-2.4118 5.60883,-5.95299 C 605.52563,526.29913 615.59878,517 618.0001,517 c 1.03736,0 6.07421,1.44868 11.193,3.21929 9.18869,3.17841 9.54823,3.21978 28.3069,3.25745 18.74556,0.0376 19.06986,0.0749 24.21676,2.78071 6.586,3.46239 7.84533,3.43751 9.10639,-0.17997 0.56033,-1.60739 1.9276,-3.4089 3.03837,-4.00337 3.25765,-1.74344 12.74203,-1.56389 15.57894,0.29492 5.12919,3.36078 5.54012,0.59104 0.69073,-4.6557 -5.92793,-6.41364 -22.95644,-7.36605 -40.07983,-2.24168 -6.09142,1.82293 -10.76477,2.52835 -16.75,2.52835 -4.56575,0 -8.27607,-0.3375 -8.24517,-0.75 0.10818,-1.44397 11.94764,-10.78 17.7518,-13.99823 13.62682,-7.55566 33.55421,-9.37939 50.14607,-4.5893 16.71244,4.8249 31.02581,14.36972 35.37175,23.58753 1.45573,3.08762 2.28964,3.75 4.72111,3.75 2.82688,0 2.95308,-0.18953 2.95308,-4.43513 0,-4.43513 0,-4.43513 8.36074,-0.51716 4.5984,2.15488 14.38454,6.1347 21.74698,8.84404 13.15914,4.84249 13.3354,4.94731 10.38926,6.17867 -1.64834,0.68894 -7.33098,3.18833 -12.62808,5.55421 -22.05722,9.85154 -24.28021,10.50975 -40.24934,11.91748 -16.7465,1.47627 -21.68344,3.24993 -33.72971,12.11789 -8.34597,6.14396 -14.17005,8.94461 -21.32351,10.25394 -18.15211,3.32245 -34.12273,-0.93502 -47.54192,-12.6738 -5.3331,-4.66526 -5.34958,-4.67134 -4.64063,-1.71101 1.9704,8.22772 10.94339,20.94835 17.10788,24.25313 1.09542,0.58725 1.69691,1.36249 1.33665,1.72276 -1.02959,1.02959 -11.9411,-2.09644 -18.95384,-5.43008 C 629.5,579.04471 629.5,579.04471 634.77952,583.98536 644.84897,593.4085 661.14993,599 678.55185,599 c 15.90293,0 26.58609,-2.80987 36.43113,-9.58206 2.75936,-1.89811 5.01702,-3.18446 5.01702,-2.85857 0,1.11515 -8.80277,11.93653 -12.65357,15.55522 -2.11554,1.98802 -5.56638,4.75159 -7.66855,6.14126 -3.82212,2.52668 -3.82212,2.52668 3.5,3.17223 4.02717,0.35506 11.25962,1.14289 16.07212,1.75075 8.08163,1.02078 8.75,1.27717 8.75,3.3565 0,4.43699 -5.8593,25.3391 -9.38138,33.46657 -19.93649,46.005 -72.19023,84.10395 -135.05508,98.4706 -13.73706,3.13936 -37.21308,5.52746 -54.35179,5.52894 -16.76498,10e-4 -38.50999,-1.73039 -37.98973,-3.02563 0.15289,-0.38063 5.74521,-4.79766 12.42738,-9.81564 13.17419,-9.89315 23.7378,-19.1063 22.88487,-19.95924 -0.29428,-0.29427 -2.22237,0.79813 -4.28466,2.42756 -6.90389,5.45481 -16.73212,11.09531 -39.32035,22.56629 -21.53279,10.93498 -36.72607,17.4715 -60.42926,25.99816 -10.65532,3.83299 -14.39124,4.99337 -40,12.42402 -16.97843,4.92647 -44.7397,11.15544 -60,13.46258 -12.59509,1.90421 -42.87514,3.29729 -49,2.25434 z m 84.19736,-29.25611 c 58.8512,-14.60693 95.10365,-26.99804 128.82743,-44.03328 26.71844,-13.49657 45.18429,-26.449 59.38281,-41.65263 6.59164,-7.05826 8.20457,-9.43867 6.3424,-9.36029 -1.69921,0.0715 -20.10112,10.42809 -40.75,22.93406 -33.45855,20.26413 -58.2187,31.96401 -117.41632,55.48255 -15.72102,6.24578 -33.75868,13.01389 -40.08368,15.04023 -21.28483,6.81904 -19.85293,7.43456 3.69736,1.58936 z m 203.3325,-34.61911 c 15.92373,-1.96822 23.94972,-3.65582 36.42931,-7.65987 11.43625,-3.66929 36.57711,-16.01982 47.54729,-23.35776 14.26999,-9.54517 30.36003,-26.96799 36.42395,-39.44103 1.6467,-3.38714 1.57889,-3.35489 -2.10279,1 -15.61732,18.47299 -32.89544,32.02909 -56.77657,44.54583 -12.89124,6.75664 -25.52507,11.81094 -45.55105,18.2232 -11.41217,3.65414 -15.13863,4.52808 -30.5,7.15292 -9.0597,1.54806 0.80085,1.23365 14.52986,-0.46329 z m -4.69647,-17.53629 c 23.45712,-5.96762 42.71331,-20.91506 68.10183,-52.86342 16.22586,-20.41828 32.81579,-36.55523 43.06478,-41.88891 2.2,-1.14491 3.37719,-2.10154 2.61597,-2.12584 -2.35157,-0.0751 -17.21441,7.91861 -25.3386,13.62789 -4.7846,3.36238 -12.95669,11.01979 -21.48034,20.1275 -33.1858,35.45976 -47.84962,48.50719 -66.03347,58.75461 -13.18187,7.42859 -13.19459,7.4883 -0.93017,4.36817 z m 30.14294,-49.98158 c 8.4435,-5.33256 20.196,-17.9146 24.31677,-26.03316 10.54062,-20.7667 7.28889,-38.16208 -9.01689,-48.23651 -6.93618,-4.28548 -23.35039,-5.92075 -36.34255,-3.62063 -4.83083,0.85524 -27.43303,7.67876 -27.4339,8.28219 -1.3e-4,0.092 8.43737,0.1695 18.75,0.17216 17.41782,0.005 19.17084,0.17398 24.66905,2.38501 C 594.04915,606.96897 599,614.87671 599,629.9714 c 0,13.91996 -5.09089,26.49608 -15.20598,37.5636 -2.74709,3.00575 -4.71352,5.465 -4.36985,5.465 0.34367,0 3.51714,-1.82665 7.05216,-4.05921 z m -31.3769,-8.31625 c 6.84774,-2.1413 14.07884,-6.07149 16.90057,-9.18568 2.18122,-2.4073 2.24498,-2.66185 0.5,-1.9963 -12.60265,4.80678 -12.93779,4.86787 -29.15853,5.31439 -9.92861,0.27332 -16.85722,0.0538 -17.97072,-0.56935 -1.52944,-0.85591 -1.19263,-1.11653 2.15852,-1.67025 7.01924,-1.1598 15.48355,-4.71317 21.04912,-8.83656 2.98189,-2.2092 5.42161,-4.3669 5.42161,-4.7949 0,-0.42799 -2.44092,0.0616 -5.42427,1.08805 -12.75852,4.38958 -36.71974,5.65898 -46.80575,2.47964 -3.01547,-0.95054 -6.50307,-2.49795 -7.75022,-3.43868 -2.20165,-1.6607 -1.98056,-1.72743 7.60634,-2.29576 6.24222,-0.37005 12.9681,-1.52796 18.28648,-3.14816 4.62692,-1.40955 8.52694,-2.67715 8.6667,-2.8169 0.13977,-0.13974 -6.57089,-0.2559 -14.91258,-0.25813 -11.1274,-0.003 -17.62486,-0.51878 -24.39658,-1.93678 -5.07644,-1.06301 -9.51224,-1.65038 -9.85734,-1.30528 -1.05172,1.05172 5.66406,11.82232 10.00366,16.04361 9.02612,8.78002 22.68403,15.52092 37.08356,18.30271 8.19638,1.58342 21.91192,1.11552 28.59943,-0.97567 z m -107.00572,-33.9773 c 11.9567,-5.19895 20.67658,-8.29429 35.90629,-12.74583 5.775,-1.68799 10.85174,-3.40559 11.28166,-3.8169 1.09736,-1.04986 -15.2349,1.57933 -24.5065,3.94509 -14.58455,3.72143 -36.76597,13.90096 -51.27841,23.53275 -11.6778,7.75046 -10.66299,7.91174 4.00325,0.63622 7.7,-3.81977 18.76717,-9.01786 24.59371,-11.55133 z m 52.18479,-70.70785 c 11.98546,-4.67088 30.81336,-9.48547 42.69527,-10.91786 10.58065,-1.27552 28.47994,-1.32539 32.78283,-0.0913 3.21674,0.92255 3.2434,0.90147 3.2434,-2.56574 0,-6.24329 -1.20206,-7.28787 -7.7467,-6.73177 -18.36257,1.56026 -37.07685,5.40388 -55.2533,11.34815 -10.54642,3.44901 -31.02336,13.13746 -33.12905,15.67466 -1.02261,1.23217 -0.3011,1.09444 2.94686,-0.56254 2.36556,-1.20682 8.87287,-3.97592 14.46069,-6.15356 z M 746.4626,542.93948 C 746.14325,542.42277 745.19602,542 744.35765,542 c -0.83837,0 -1.33876,-0.5625 -1.11198,-1.25 0.25661,-0.77792 2.6485,-1.33134 6.33333,-1.46537 C 761.45118,538.85278 782,536.67491 782,535.84848 782,535.38182 774.07686,535 764.39301,535 c -15.23981,0 -17.5296,-0.20167 -17.03138,-1.5 0.89524,-2.33297 -9.7323,-1.96852 -15.22083,0.52196 -2.39757,1.08792 -5.07507,1.97804 -5.95,1.97804 -3.09151,0 0.32125,1.86308 8.65284,4.72372 8.86329,3.0432 12.56684,3.74947 11.61896,2.21576 z M 709.5,531.5 c 0,-2.75966 -0.2793,-3 -3.4863,-3 -2.56814,0 -3.57803,0.47627 -3.83458,1.80841 -0.65745,3.41388 0.62604,4.83678 4.064,4.50546 C 709.12546,534.5361 709.5,534.155 709.5,531.5 Z M 360.26874,640.61374 c -7.47476,-7.05238 -15.10201,-18.59752 -13.01118,-19.69464 0.68334,-0.35857 7.80342,-0.93517 15.8224,-1.28134 8.01897,-0.34618 16.74951,-0.92678 19.4012,-1.29023 4.82125,-0.66083 4.82125,-0.66083 -0.88412,6.24582 -4.94675,5.9883 -10.08979,14.86589 -11.96697,20.65665 -0.31202,0.9625 -1.02299,1.75 -1.57994,1.75 -0.55695,0 -4.05858,-2.87382 -7.78139,-6.38626 z M 302.5,609.97415 C 226.44881,605.79586 175.32152,596.85888 151.61035,583.59884 145.0525,579.93148 139,574.08597 139,571.41975 c 0,-2.37819 4.37562,-6.14428 8.62227,-7.42117 5.86718,-1.76416 27.55331,-2.38273 39.37773,-1.1232 27.29021,2.90692 145.05498,27.35774 123.5,25.64159 -3.3,-0.26273 -19.5,-1.61643 -36,-3.0082 -16.5,-1.39178 -38.55,-3.19951 -49,-4.01719 -10.45,-0.81767 -21.24184,-1.74212 -23.98187,-2.05433 -2.74003,-0.31221 -4.73565,-0.32143 -4.43471,-0.0205 1.61309,1.61309 82.35975,13.05955 113.41658,16.07767 8.8,0.85519 22.075,2.19302 29.5,2.97296 7.425,0.77994 18.675,1.92814 25,2.55156 17.68627,1.74323 34.15044,3.96587 35.668,4.81514 1.61412,0.90331 -12.60819,2.79977 -31.18274,4.15803 -14.59986,1.06762 -47.38607,1.05883 -66.98526,-0.018 z m 410.20327,-8.67044 c 2.18869,-2.64204 5.51582,-7.10935 7.39362,-9.92735 C 723.73806,585.91208 747.89427,559 749.15782,559 c 1.07732,0 -3.68168,12.26833 -7.95214,20.5 -6.19024,11.93222 -19.32653,23.43362 -29.59377,25.91065 -2.88808,0.69677 -2.88808,0.69677 1.09136,-4.10694 z M 372,591.0289 c -26.16176,-4.04781 -47.6349,-8.11664 -84.5,-16.01146 -28.99773,-6.20999 -59.13474,-12.21397 -80.9339,-16.12387 -44.9725,-8.06628 -69.4431,-15.47628 -86.3468,-26.14689 -10.06881,-6.35602 -11.77406,-11.88348 -5.1471,-16.68402 7.76351,-5.62386 12.47972,-6.56934 32.4278,-6.50095 20.78232,0.0713 24.67182,0.88519 62.24889,13.02646 33.50964,10.82707 96.94306,34.05322 95.88718,35.1091 -0.17183,0.17182 -16.47274,-3.25981 -36.22424,-7.62585 C 249.66032,545.70538 222.475,540.02559 209,537.44965 c -13.475,-2.57593 -26.2237,-5.02709 -28.33043,-5.44701 -2.10674,-0.41993 -3.45674,-0.43863 -3,-0.0416 1.12196,0.97539 11.03175,3.84549 34.33043,9.94285 85.35117,22.33679 103.76431,27.24685 132,35.19926 24.3203,6.84967 45.40669,12.89362 55,15.76454 6.5,1.9452 6.5,1.9452 2,1.94854 -2.475,0.002 -15.525,-1.70248 -29,-3.78736 z m 23.5,-11.63738 C 346.33758,563.85477 337.15493,560.66789 270,535.83625 c -15.0707,-5.57264 -47.5282,-16.86716 -80,-27.83829 -30.32058,-10.2443 -42.80185,-14.97365 -56.21808,-21.30191 -18.95914,-8.94278 -31.01146,-18.2145 -34.485681,-26.52948 -1.333127,-3.19062 -1.293385,-3.6938 0.479626,-6.07272 4.223845,-5.6673 7.438815,-6.59634 22.724135,-6.56669 19.22824,0.0373 29.40986,2.77632 60.5,16.27541 38.45685,16.69766 127,60.47257 127,62.78762 0,0.21384 -3.7125,-0.99418 -8.25,-2.68448 -50.42894,-18.78572 -129.24251,-46.27404 -130.91629,-45.66052 -0.85899,0.31485 25.06453,11.55038 55.66629,24.12636 12.65,5.1986 31.1,12.93283 41,17.18719 9.9,4.25436 24.525,10.52489 32.5,13.93451 19.2912,8.24775 85.78355,38.02696 99,44.33807 5.775,2.75767 9.825,5.01903 9,5.02523 -0.825,0.006 -6.45,-1.55306 -12.5,-3.46503 z m 6,-12.02775 C 394.9,563.7875 373.525,552.61689 354,542.54019 334.475,532.46348 311.075,520.05528 302,514.96641 258.34319,490.48552 232.92955,477.41589 200,462.51024 188.175,457.15762 175.6561,451.47811 172.18023,449.8891 168.70436,448.3001 165.61876,447 165.32335,447 163.59541,447 139.21651,433.96406 132.42471,429.40837 116.58066,418.78076 105,404.3623 105,395.26335 c 0,-9.99085 16.03537,-13.7869 36.41819,-8.62128 14.30864,3.62625 25.97245,10.38089 82.08181,47.53453 20.35,13.47505 42.175,27.87358 48.5,31.99673 9.83373,6.41043 35.41203,24.99953 38.5,27.97998 1.28257,1.23792 -1.94411,0.0674 -6,-2.17665 C 273.18345,474.65016 172,422.29942 172,423.42323 c 0,0.88529 19.41583,13.22307 36,22.87617 27.65379,16.09637 85.59267,50.2996 122,72.02061 28.71982,17.13456 78.1718,49.24417 84.45,54.83413 2.37904,2.11824 -1.81784,0.24168 -12.95,-5.79037 z m 13.5,-8.1236 c -1.375,-0.91021 -9.25,-6.42317 -17.5,-12.25103 -8.25,-5.82787 -23.55,-16.38462 -34,-23.45945 C 341.03323,508.3193 323.04025,495.68705 306.37342,483.4231 292.83412,473.46048 270.39469,457.2475 253,444.85966 c -15.71105,-11.18882 -69.66422,-47.34487 -79.5,-53.27594 -4.4,-2.65324 -11.6,-6.98691 -16,-9.63037 -16.52105,-9.92565 -32.36739,-24.85079 -37.38136,-35.20828 -3.14303,-6.49263 -4.60809,-14.58539 -3.25764,-17.99461 1.79978,-4.54354 6.59621,-6.74607 14.639,-6.72228 9.14024,0.027 14.44117,1.30461 23.10146,5.56763 8.142,4.00791 14.48008,9.05369 41.95947,33.40419 19.278,17.08294 25.19273,22.18753 44.51393,38.41689 20.50628,17.22479 46.01903,39.64909 57.42389,50.47243 14.27999,13.55187 18.71214,17.99707 16.00125,16.04837 -1.1,-0.79073 -2.225,-1.6823 -2.5,-1.98126 -0.275,-0.29896 -3.425,-2.57904 -7,-5.06683 -10.84927,-7.54988 -31.92687,-22.91759 -57.5,-41.92337 -4.95,-3.67881 -12.825,-9.37583 -17.5,-12.66005 -4.675,-3.28422 -16.15,-11.36822 -25.5,-17.96446 -31.13186,-21.96291 -30.01468,-20.40677 5.63155,7.84427 14.09735,11.17271 34.57235,27.52641 45.5,36.34156 10.92765,8.81515 27.74345,21.93576 37.36845,29.15691 9.625,7.22115 22.45,17.02343 28.5,21.78286 6.05,4.75943 13.7,10.74468 17,13.30056 43.94272,34.0341 93.09094,75.45499 76.5,64.47229 z m 12.97725,-3.76759 c -0.71927,-0.86666 -10.34589,-9.13233 -21.3925,-18.36816 -77.44155,-64.74718 -83.73914,-70.12985 -107.08043,-91.5238 -7.15238,-6.55565 -16.18735,-14.65565 -20.07771,-18 -32.75302,-28.15605 -87.53963,-79.97684 -104.05835,-98.42524 -15.04962,-16.80768 -23.48884,-31.8215 -24.96986,-44.42272 -1.32516,-11.27502 3.57654,-15.74147 17.25273,-15.72079 18.77571,0.0284 35.358,8.91755 55.47137,29.73615 15.80672,16.36094 50.41741,59.98678 110.47601,139.25198 15.21067,20.075 31.51772,41.225 36.23789,47 13.75364,16.82719 28.9466,34.80039 37.61776,44.50164 12.72405,14.23561 22.8589,26.51863 22.32298,27.05455 -0.27067,0.27068 -1.08063,-0.21694 -1.79989,-1.08361 z M 432.27824,543.25 c -13.67922,-17.75287 -33.16743,-46.22566 -55.26937,-80.75 -28.90266,-45.14741 -64.33662,-96.91082 -97.88876,-143 -5.60547,-7.7 -12.50512,-17.25802 -15.33256,-21.24005 -2.82743,-3.98203 -5.34674,-7.03409 -5.59846,-6.78237 -1.10373,1.10372 26.66931,44.94872 75.21046,118.73391 20.72929,31.50966 30.11099,46.58733 37.513,60.28851 3.01536,5.58145 3.05877,5.79072 0.62227,3 -1.44056,-1.65 -10.58772,-13.53142 -20.32701,-26.40314 C 316.18333,400.8075 285.33626,360.86203 258.46548,327 c -30.8604,-38.88968 -39.92622,-51.53051 -45.5986,-63.57996 -6.59393,-14.00701 -8.18741,-23.07924 -5.31475,-30.25872 1.98733,-4.96682 5.31228,-6.70934 12.35992,-6.4775 17.35179,0.57082 38.79144,17.66917 57.50348,45.85966 16.26253,24.50019 65.52315,109.30868 90.58662,155.95652 8.59703,16.0007 21.32936,37.937 32.65641,56.26316 C 417.32058,511.72082 439.84712,551 438.64527,551 c -0.21746,0 -3.08262,-3.4875 -6.36703,-7.75 z m 13.73676,-0.5 C 439.54115,531.51607 413.82309,479.61533 406.49696,463 389.33325,424.07344 378.4327,400.92616 357.99207,360 c -19.08742,-38.21676 -37.2376,-72.57886 -39.61525,-75 -1.40213,-1.42778 0.97265,4.45677 5.4481,13.5 1.08876,2.2 7.16157,15.475 13.49512,29.5 6.33356,14.025 17.00241,37.425 23.70857,52 26.36438,57.29967 28.11303,61.24369 36.13445,81.5 1.08899,2.75 1.54746,4.55 1.01884,4 -2.79564,-2.90866 -26.31316,-43.17841 -56.64797,-97 -6.50979,-11.55 -17.09408,-30 -23.52065,-41 -27.49,-47.05312 -34.30007,-60.4815 -37.99065,-74.91151 -3.46218,-13.53701 -2.22354,-24.80505 3.03613,-27.61994 3.3239,-1.77889 11.64694,-0.70853 18.34755,2.35955 11.82807,5.41583 27.57838,25.13254 41.67651,52.1719 11.14897,21.38305 29.0182,64.81257 46.08279,112 11.79779,32.62351 17.26876,46.82137 26.58833,69 11.29269,26.87424 18.82988,45.34124 22.44791,55 6.12756,16.35825 11.73754,32.5 11.2952,32.5 -0.25113,0 -1.81805,-2.3625 -3.48205,-5.25 z m 11.99641,-3.94512 C 450.03982,520.27443 429.58,454.85185 416.4789,406 c -5.82811,-21.73203 -19.22001,-69.1463 -24.43146,-86.5 -2.1472,-7.15 -4.9349,-16.52914 -6.19488,-20.84254 -1.25997,-4.3134 -2.44453,-7.38155 -2.63234,-6.81813 -0.44263,1.32791 7.50055,34.98248 19.39165,82.16067 10.66767,42.32422 18.41624,75.1993 18.33052,77.77144 -0.14017,4.20619 -19.29966,-43.32234 -34.88325,-86.53413 -2.12973,-5.90552 -7.34329,-19.73731 -11.5857,-30.73731 -9.88397,-25.62786 -16.96427,-46.24971 -19.47483,-56.72179 -2.17844,-9.08675 -2.65418,-23.87769 -0.96378,-29.96393 2.43047,-8.75081 13.26436,-11.77049 21.75714,-6.06428 8.29762,5.57508 18.73252,22.42237 25.07255,40.47998 8.02206,22.84832 17.99695,63.94946 36.10522,148.77002 2.28967,10.725 7.09353,33 10.67523,49.5 7.88831,36.3394 13.30651,62.88185 12.91599,63.27237 -0.15867,0.15867 -1.30597,-2.0767 -2.54955,-4.96749 z M 469.25998,538 c -3.52198,-15.62139 -12.35506,-79.33867 -18.78426,-135.5 -3.02504,-26.42476 -11.11973,-82.47734 -12.04427,-83.40188 -0.63684,-0.63684 -0.51362,1.10243 1.09116,15.40188 2.44772,21.81061 6.38145,71.10248 7.47452,93.66007 0.56873,11.73696 1.28389,22.46493 1.58923,23.83993 0.3498,1.57519 0.20936,2.13008 -0.37964,1.5 -1.25798,-1.34572 -2.11336,-5.03676 -11.23975,-48.5 -4.33082,-20.625 -9.90016,-46.725 -12.37631,-58 -8.07768,-36.78121 -9.29567,-48.89562 -6.02372,-59.91347 2.86117,-9.63459 12.19019,-17.17733 19.31094,-15.61335 12.53909,2.75404 21.44009,41.5012 25.61995,111.52682 4.05862,67.99435 7.76453,146.19317 7.32189,154.5 -0.31972,6 -0.31972,6 -1.55974,0.5 z m 9.75875,-1.55 c 0.0547,-11.52791 2.13786,-63.24865 3.44212,-85.45937 0.82389,-14.03015 1.74376,-37.20515 2.04416,-51.5 0.3004,-14.29484 0.75277,-28.57813 1.00525,-31.74063 0.25249,-3.1625 0.11853,-5.75 -0.29769,-5.75 -0.41622,0 -1.75821,11.5875 -2.98221,25.75 -2.63362,30.47289 -7.04239,73.39536 -7.59562,73.94859 -0.21463,0.21463 -0.68537,-3.79224 -1.04607,-8.90417 C 473.22796,447.68249 471.60169,424.825 469.97474,402 468.34779,379.175 467.01291,356.64418 467.00833,351.9315 466.99066,333.75174 473.62989,323 484.87361,323 c 7.97464,0 12.02581,6.65268 14.31039,23.5 1.3943,10.28204 0.43192,58.66634 -1.57133,79 -3.7977,38.54793 -7.49616,67.0519 -11.15872,86 -4.75842,24.61754 -7.4769,33.7398 -7.43522,24.95 z"
       inkscape:export-filename="fantail-black"
       inkscape:export-xdpi="96"
       inkscape:export-ydpi="96" />
  </g>
</svg>
